<svg width="571" height="388" viewBox="0 0 571 388" fill="none" xmlns="http://www.w3.org/2000/svg">
<path d="M1.34951 29.4144H570.326V380.815C570.326 384.411 567.411 387.326 563.815 387.326H7.86107C4.26483 387.326 1.34951 384.411 1.34951 380.815V29.4144Z" fill="white" stroke="#3C64B1" stroke-width="1.34722"/>
<path opacity="0.1" d="M0.675903 28.7408H571V380.815C571 384.783 567.783 388 563.815 388H7.86107C3.8928 388 0.675903 384.783 0.675903 380.815V28.7408Z" fill="#3C64B1"/>
<path d="M1.34951 7.18519C1.34951 3.58894 4.26485 0.673611 7.86109 0.673611H563.815C567.411 0.673611 570.326 3.58894 570.326 7.18518V35.2523H1.34951V7.18519Z" fill="white" stroke="#3C64B1" stroke-width="1.34722"/>
<path fill-rule="evenodd" clip-rule="evenodd" d="M48.2777 22.4537C50.7579 22.4537 52.7685 20.4431 52.7685 17.963C52.7685 15.4828 50.7579 13.4722 48.2777 13.4722C45.7976 13.4722 43.787 15.4828 43.787 17.963C43.787 20.4431 45.7976 22.4537 48.2777 22.4537Z" fill="white" stroke="#3C64B1" stroke-width="1.34722"/>
<path fill-rule="evenodd" clip-rule="evenodd" d="M32.1111 22.4537C34.5913 22.4537 36.6018 20.4431 36.6018 17.963C36.6018 15.4828 34.5913 13.4722 32.1111 13.4722C29.6309 13.4722 27.6204 15.4828 27.6204 17.963C27.6204 20.4431 29.6309 22.4537 32.1111 22.4537Z" fill="white" stroke="#3C64B1" stroke-width="1.34722"/>
<path fill-rule="evenodd" clip-rule="evenodd" d="M15.9445 22.4537C18.4246 22.4537 20.4352 20.4431 20.4352 17.963C20.4352 15.4828 18.4246 13.4722 15.9445 13.4722C13.4643 13.4722 11.4537 15.4828 11.4537 17.963C11.4537 20.4431 13.4643 22.4537 15.9445 22.4537Z" fill="white" stroke="#3C64B1" stroke-width="1.34722"/>
</svg>
